<?xml version="1.0" ?><svg height="64" id="svg8" version="1.1" viewBox="0 0 16.933333 16.933333" width="64" xmlns="http://www.w3.org/2000/svg" xmlns:cc="http://creativecommons.org/ns#" xmlns:dc="http://purl.org/dc/elements/1.1/" xmlns:inkscape="http://www.inkscape.org/namespaces/inkscape" xmlns:rdf="http://www.w3.org/1999/02/22-rdf-syntax-ns#" xmlns:sodipodi="http://sodipodi.sourceforge.net/DTD/sodipodi-0.dtd" xmlns:svg="http://www.w3.org/2000/svg"><defs id="defs2"/><g id="layer2"><path d="m 11.906248,0.79375 h 1.400432 l 0.716235,0.529167 h 1.5875 c 0.293158,0 0.529167,0.236008 0.529167,0.529165 v 2.116667 c 0,0.293158 -0.236009,0.529167 -0.529167,0.529167 h -3.704167 c -0.293158,0 -0.529166,-0.236009 -0.529166,-0.529167 V 1.322916 c 0,-0.293159 0.236008,-0.529167 0.529166,-0.529166 z" id="path6885" style="opacity:1;fill:#e2e7fa;fill-opacity:1;stroke:none;stroke-width:0.529167;stroke-linecap:round;stroke-linejoin:round;stroke-miterlimit:4;stroke-dasharray:none;stroke-dashoffset:0;stroke-opacity:1"/><path d="m 15.610415,1.322917 v 2.116666 c 0,0.293158 -0.236008,0.529167 -0.529166,0.529167 h -3.704167 c 0,0.293158 0.236009,0.529167 0.529167,0.529167 h 3.704166 c 0.293159,0 0.529167,-0.236009 0.529167,-0.529167 V 1.852083 c 0,-0.293158 -0.236008,-0.529166 -0.529167,-0.529166 z" id="path6897" style="opacity:1;fill:#c4d2f0;fill-opacity:1;stroke:none;stroke-width:0.529167;stroke-linecap:round;stroke-linejoin:round;stroke-miterlimit:4;stroke-dasharray:none;stroke-dashoffset:0;stroke-opacity:1"/><path d="M 45 3 C 43.892001 2.9999962 43 3.8919975 43 5 L 43 15 C 43 16.107999 43.892001 17 45 17 L 47 17 C 45.892001 17 45 16.107999 45 15 L 45 5 C 45 3.8919975 45.892001 2.9999962 47 3 L 45 3 z " id="path864" style="opacity:1;fill:#f8f8f8;fill-opacity:1;stroke:none;stroke-width:2.00000119;stroke-linecap:round;stroke-linejoin:round;stroke-miterlimit:4;stroke-dasharray:none;stroke-dashoffset:0;stroke-opacity:1" transform="scale(0.26458333)"/><path d="m 11.906248,6.614583 h 1.400432 l 0.716235,0.529167 h 1.5875 c 0.293158,0 0.529167,0.236008 0.529167,0.529166 v 2.116667 c 0,0.293158 -0.236009,0.529167 -0.529167,0.529167 h -3.704167 c -0.293158,0 -0.529166,-0.236009 -0.529166,-0.529167 V 7.14375 c 0,-0.29316 0.236008,-0.529167 0.529166,-0.529167 z" id="path6887" style="opacity:1;fill:#e2e7fa;fill-opacity:1;stroke:none;stroke-width:0.529167;stroke-linecap:round;stroke-linejoin:round;stroke-miterlimit:4;stroke-dasharray:none;stroke-dashoffset:0;stroke-opacity:1"/><path d="m 11.906248,12.435416 h 1.400432 l 0.716235,0.529167 h 1.5875 c 0.293158,0 0.529167,0.236008 0.529167,0.529165 v 2.116667 c 0,0.293158 -0.236009,0.529168 -0.529167,0.529168 h -3.704167 c -0.293158,0 -0.529166,-0.236009 -0.529166,-0.529168 v -2.645832 c 0,-0.293159 0.236008,-0.529167 0.529166,-0.529167 z" id="path6889" style="opacity:1;fill:#e2e7fa;fill-opacity:1;stroke:none;stroke-width:0.529167;stroke-linecap:round;stroke-linejoin:round;stroke-miterlimit:4;stroke-dasharray:none;stroke-dashoffset:0;stroke-opacity:1"/><path d="m 1.336146,10.054167 h 7.1172875 c 0.3004885,0 0.542398,0.241909 0.542398,0.542398 v 2.090208 c 0,0.300489 -0.2419095,0.542398 -0.542398,0.542398 H 1.336146 c -0.3004885,0 -0.54239804,-0.241909 -0.54239804,-0.542398 v -2.090208 c 0,-0.300489 0.24190954,-0.542398 0.54239804,-0.542398 z" id="rect6881" style="fill:#a8c5f7;fill-opacity:1;stroke:none;stroke-width:0.529167;stroke-linecap:round;stroke-linejoin:round;stroke-miterlimit:4;stroke-dasharray:none"/><path d="m 8.465632,10.0552 c 9.6e-5,0.0042 0.001,0.0082 0.001,0.0124 v 2.089796 C 8.466632,12.457886 8.224518,12.7 7.92403,12.7 H 0.80716 c -0.004,0 -0.008,-9.37e-4 -0.0124,-10e-4 0.007,0.294574 0.24533,0.5302 0.54157,0.5302 h 7.11688 c 0.300488,0 0.542602,-0.242114 0.542602,-0.542602 v -2.089795 c 0,-0.296243 -0.235625,-0.534867 -0.5302,-0.54157 z" id="path6883" style="fill:#91b8fb;fill-opacity:1;stroke:none;stroke-width:0.529167;stroke-linecap:round;stroke-linejoin:round;stroke-miterlimit:4;stroke-dasharray:none"/><path d="m 1.336146,3.7041609 h 7.1172875 c 0.3004885,0 0.542398,0.2419096 0.542398,0.5423981 v 2.0902081 c 0,0.3004885 -0.2419095,0.5423981 -0.542398,0.5423981 H 1.336146 c -0.3004885,0 -0.54239804,-0.2419096 -0.54239804,-0.5423981 V 4.246559 c 0,-0.3004885 0.24190954,-0.5423981 0.54239804,-0.5423981 z" id="rect6879" style="fill:#a8c5f7;fill-opacity:1;stroke:none;stroke-width:0.529167;stroke-linecap:round;stroke-linejoin:round;stroke-miterlimit:4;stroke-dasharray:none"/><path d="m 1.336146,6.879168 h 7.1172875 c 0.3004885,0 0.542398,0.2419096 0.542398,0.5423981 v 2.0902081 c 0,0.3004886 -0.2419095,0.5423978 -0.542398,0.5423978 H 1.336146 c -0.3004885,0 -0.54239804,-0.2419092 -0.54239804,-0.5423978 V 7.4215661 c 0,-0.3004885 0.24190954,-0.5423981 0.54239804,-0.5423981 z" id="rect6870" style="fill:#a8c5f7;fill-opacity:1;stroke:none;stroke-width:0.529167;stroke-linecap:round;stroke-linejoin:round;stroke-miterlimit:4;stroke-dasharray:none"/><path d="m 8.465632,6.8802 c 9.6e-5,0.0042 0.001,0.0082 0.001,0.0124 v 2.089796 c 0,0.300488 -0.242114,0.542602 -0.542602,0.542602 H 0.80716 c -0.004,0 -0.008,-9.37e-4 -0.0124,-9.99e-4 0.007,0.294575 0.24533,0.5302 0.54157,0.5302 h 7.11688 c 0.300488,0 0.542602,-0.242114 0.542602,-0.542602 V 7.421801 c 0,-0.296242 -0.235625,-0.534866 -0.5302,-0.541569 z" id="path6877" style="fill:#91b8fb;fill-opacity:1;stroke:none;stroke-width:0.529167;stroke-linecap:round;stroke-linejoin:round;stroke-miterlimit:4;stroke-dasharray:none"/><path d="m 8.465632,3.705199 c 9.6e-5,0.0042 0.001,0.0082 0.001,0.0124 v 2.089795 c 2e-6,0.300491 -0.242113,0.542604 -0.542601,0.542604 H 0.80716 c -0.004,0 -0.008,-9.26e-4 -0.0124,-0.001 0.007,0.294573 0.24533,0.5302 0.54157,0.5302 h 7.116878 c 0.300488,0 0.542602,-0.242115 0.542602,-0.542603 V 4.246799 c 0,-0.296242 -0.235625,-0.534866 -0.5302,-0.541569 z" id="rect6874" style="fill:#91b8fb;fill-opacity:1;stroke:none;stroke-width:0.529167;stroke-linecap:round;stroke-linejoin:round;stroke-miterlimit:4;stroke-dasharray:none"/><path d="m 15.610416,7.14375 v 2.116667 c 0,0.293158 -0.236009,0.529166 -0.529167,0.529166 h -3.704167 c 0,0.293158 0.236009,0.529167 0.529167,0.529167 h 3.704167 c 0.293158,0 0.529166,-0.236009 0.529166,-0.529167 V 7.672917 c 0,-0.293158 -0.236008,-0.529167 -0.529166,-0.529167 z" id="path6900" style="opacity:1;fill:#c4d2f0;fill-opacity:1;stroke:none;stroke-width:0.529167;stroke-linecap:round;stroke-linejoin:round;stroke-miterlimit:4;stroke-dasharray:none;stroke-dashoffset:0;stroke-opacity:1"/><path d="m 11.90625,6.6134433 c -0.293158,-1e-6 -0.529167,0.2360076 -0.529167,0.5291666 v 2.6458333 c 0,0.2931578 0.236009,0.5291668 0.529167,0.5291668 h 0.529167 c -0.293159,0 -0.529167,-0.236009 -0.529167,-0.5291668 V 7.1426099 c 0,-0.293159 0.236008,-0.5291676 0.529167,-0.5291666 z" id="path867" style="opacity:1;fill:#f8f8f8;fill-opacity:1;stroke:none;stroke-width:0.529167;stroke-linecap:round;stroke-linejoin:round;stroke-miterlimit:4;stroke-dasharray:none;stroke-dashoffset:0;stroke-opacity:1"/><path d="M 11.377082,8.466666 V 7.14375 c 0,-0.29316 0.236008,-0.529167 0.529166,-0.529167 h 1.400432 l 0.716235,0.529167 h 1.5875 c 0.293158,0 0.529167,0.236008 0.529167,0.529166 v 0.793751 z" id="path6904" style="opacity:1;fill:#a8c5f7;fill-opacity:1;stroke:none;stroke-width:0.529167;stroke-linecap:round;stroke-linejoin:round;stroke-miterlimit:4;stroke-dasharray:none;stroke-dashoffset:0;stroke-opacity:1"/><path d="M 11.377082,2.645833 V 1.322917 c 0,-0.29316 0.236008,-0.529167 0.529166,-0.529167 h 1.400432 l 0.716235,0.529167 h 1.5875 c 0.293158,0 0.529167,0.236008 0.529167,0.529165 v 0.793751 z" id="path6911" style="opacity:1;fill:#a8c5f7;fill-opacity:1;stroke:none;stroke-width:0.529167;stroke-linecap:round;stroke-linejoin:round;stroke-miterlimit:4;stroke-dasharray:none;stroke-dashoffset:0;stroke-opacity:1"/><path d="m 12.686773,0.79375 1.05402,0.798091 h 0.546706 L 13.30668,0.79375 Z m 2.394476,0.529167 c 0.293158,0 0.529166,0.236009 0.529166,0.529167 v 0.79375 h 0.529167 v -0.79375 c 0,-0.293158 -0.236008,-0.529167 -0.529167,-0.529167 z" id="path6913" style="opacity:1;fill:#91b8fb;fill-opacity:1;stroke:none;stroke-width:0.529167;stroke-linecap:round;stroke-linejoin:round;stroke-miterlimit:4;stroke-dasharray:none;stroke-dashoffset:0;stroke-opacity:1"/><path d="m 12.686773,6.614583 1.05402,0.798091 h 0.546706 L 13.30668,6.614583 Z m 2.394476,0.529167 c 0.293158,0 0.529166,0.236009 0.529166,0.529167 v 0.79375 h 0.529167 v -0.79375 c 0,-0.293158 -0.236008,-0.529167 -0.529167,-0.529167 z" id="path6908" style="opacity:1;fill:#91b8fb;fill-opacity:1;stroke:none;stroke-width:0.529167;stroke-linecap:round;stroke-linejoin:round;stroke-miterlimit:4;stroke-dasharray:none;stroke-dashoffset:0;stroke-opacity:1"/><path d="m 15.610416,12.964583 v 2.116665 c 0,0.293158 -0.236009,0.529167 -0.529167,0.529167 h -3.704167 c 0,0.293158 0.236009,0.529168 0.529167,0.529168 h 3.704167 c 0.293158,0 0.529166,-0.236009 0.529166,-0.529168 v -2.116667 c 0,-0.293157 -0.236008,-0.529165 -0.529166,-0.529165 z" id="path6902" style="opacity:1;fill:#c4d2f0;fill-opacity:1;stroke:none;stroke-width:0.529167;stroke-linecap:round;stroke-linejoin:round;stroke-miterlimit:4;stroke-dasharray:none;stroke-dashoffset:0;stroke-opacity:1"/><path d="m 11.90625,12.435415 c -0.293158,-1e-6 -0.529167,0.236008 -0.529167,0.529167 v 2.645833 c 0,0.293158 0.236009,0.529167 0.529167,0.529167 h 0.529167 c -0.293159,0 -0.529167,-0.236009 -0.529167,-0.529167 v -2.645833 c 0,-0.293159 0.236008,-0.529168 0.529167,-0.529167 z" id="path871" style="opacity:1;fill:#f8f8f8;fill-opacity:1;stroke:none;stroke-width:0.529167;stroke-linecap:round;stroke-linejoin:round;stroke-miterlimit:4;stroke-dasharray:none;stroke-dashoffset:0;stroke-opacity:1"/><path d="m 11.377082,14.287499 v -1.322916 c 0,-0.293159 0.236008,-0.529167 0.529166,-0.529167 h 1.400432 l 0.716235,0.529167 h 1.5875 c 0.293158,0 0.529167,0.236008 0.529167,0.529165 v 0.793751 z" id="path6915" style="opacity:1;fill:#a8c5f7;fill-opacity:1;stroke:none;stroke-width:0.529167;stroke-linecap:round;stroke-linejoin:round;stroke-miterlimit:4;stroke-dasharray:none;stroke-dashoffset:0;stroke-opacity:1"/><path d="m 12.686773,12.435416 1.05402,0.798091 h 0.546706 L 13.30668,12.435416 Z m 2.394476,0.529167 c 0.293158,0 0.529166,0.236008 0.529166,0.529167 v 0.793749 h 0.529167 V 13.49375 c 0,-0.293158 -0.236008,-0.529167 -0.529167,-0.529167 z" id="path6917" style="opacity:1;fill:#91b8fb;fill-opacity:1;stroke:none;stroke-width:0.529167;stroke-linecap:round;stroke-linejoin:round;stroke-miterlimit:4;stroke-dasharray:none;stroke-dashoffset:0;stroke-opacity:1"/><path d="M 5.0507812 14 C 3.9150767 14 3 14.915077 3 16.050781 L 3 23.949219 C 3 25.084923 3.9150767 26 5.0507812 26 L 7.0507812 26 C 5.9150767 26 5 25.084923 5 23.949219 L 5 16.050781 C 5 14.915077 5.9150767 14 7.0507812 14 L 5.0507812 14 z " id="path850" style="fill:#f8f8f8;fill-opacity:1;stroke:none;stroke-width:2.00000119;stroke-linecap:round;stroke-linejoin:round;stroke-miterlimit:4;stroke-dasharray:none" transform="scale(0.26458333)"/><path d="m 1.3363525,6.8791666 c -0.3004885,0 -0.54260251,0.2421141 -0.54260251,0.5426024 v 2.0897951 c 0,0.3004883 0.24211401,0.5426029 0.54260251,0.5426029 h 0.5291667 c -0.3004885,0 -0.5426026,-0.2421146 -0.5426026,-0.5426029 V 7.421769 c 0,-0.3004883 0.2421141,-0.5426024 0.5426026,-0.5426024 z" id="path853" style="fill:#f8f8f8;fill-opacity:1;stroke:none;stroke-width:0.529167;stroke-linecap:round;stroke-linejoin:round;stroke-miterlimit:4;stroke-dasharray:none"/><path d="m 1.3363525,10.054167 c -0.3004885,0 -0.54260251,0.242114 -0.54260251,0.542602 v 2.089795 c 0,0.300489 0.24211401,0.542603 0.54260251,0.542603 h 0.5291667 c -0.3004885,0 -0.5426026,-0.242114 -0.5426026,-0.542603 v -2.089795 c 0,-0.300488 0.2421141,-0.542602 0.5426026,-0.542602 z" id="path855" style="fill:#f8f8f8;fill-opacity:1;stroke:none;stroke-width:0.529167;stroke-linecap:round;stroke-linejoin:round;stroke-miterlimit:4;stroke-dasharray:none"/><path d="M 45 3 C 43.892001 3 43 3.8919937 43 5 L 43 10 L 45 10 L 45 5 C 45 3.8919937 45.892001 3 47 3 L 45 3 z " id="path859" style="opacity:1;fill:#f8f8f8;fill-opacity:1;stroke:none;stroke-width:2.00000119;stroke-linecap:round;stroke-linejoin:round;stroke-miterlimit:4;stroke-dasharray:none;stroke-dashoffset:0;stroke-opacity:1" transform="scale(0.26458333)"/><path d="m 11.90625,6.6134433 c -0.293158,0 -0.529167,0.2360066 -0.529167,0.5291666 V 8.4655266 H 11.90625 V 7.1426099 c 0,-0.29316 0.236008,-0.5291666 0.529167,-0.5291666 z" id="path869" style="opacity:1;fill:#f8f8f8;fill-opacity:1;stroke:none;stroke-width:0.529167;stroke-linecap:round;stroke-linejoin:round;stroke-miterlimit:4;stroke-dasharray:none;stroke-dashoffset:0;stroke-opacity:1"/><path d="m 11.90625,12.435415 c -0.293158,0 -0.529167,0.236007 -0.529167,0.529167 v 1.322916 h 0.529167 v -1.322916 c 0,-0.29316 0.236008,-0.529167 0.529167,-0.529167 z" id="path873" style="opacity:1;fill:#f8f8f8;fill-opacity:1;stroke:none;stroke-width:0.529167;stroke-linecap:round;stroke-linejoin:round;stroke-miterlimit:4;stroke-dasharray:none;stroke-dashoffset:0;stroke-opacity:1"/><path d="m 11.906247,0.52917874 c -0.43516,0 -0.79271,0.35807001 -0.79271,0.79324006 v 1.05833 h -0.52969 c -0.43516,0 -0.7947806,0.36014 -0.7947806,0.7953 v 5.02501 H 9.2598961 V 7.4217789 c 0,-0.2089603 -0.0832,-0.3986803 -0.2154899,-0.5426001 0.1321999,-0.1443501 0.2154899,-0.3342701 0.2154899,-0.54312 v -2.08979 c 0,-0.4424899 -0.3641799,-0.8066701 -0.8066701,-0.8066701 H 1.3358362 c -0.44248997,0 -0.80667,0.3641802 -0.80667,0.8066701 v 2.08979 c 0,0.2088499 0.0833,0.3987699 0.21549003,0.54312 -0.13232,0.1439198 -0.21549003,0.3336398 -0.21549003,0.5426001 v 2.0897997 c 0,0.2085901 0.0831,0.3982501 0.21497003,0.5420904 -0.1319,0.14383 -0.21497003,0.33349 -0.21497003,0.54208 v 2.09186 c 0,0.44249 0.36418003,0.80667 0.80667,0.80667 H 8.453226 c 0.4424902,0 0.8066701,-0.36418 0.8066701,-0.80667 v -2.09186 c 0,-0.20859 -0.0831,-0.39825 -0.21497,-0.54208 0.1319001,-0.1438403 0.21497,-0.3335003 0.21497,-0.5420904 v -0.78135 h 0.5291703 v 5.0275994 c 0,0.435161 0.3596206,0.794791 0.7947806,0.794791 h 0.52969 v 1.05885 c 0,0.43516 0.35755,0.792709 0.79271,0.792709 h 3.7052 c 0.43516,0 0.79272,-0.357549 0.79272,-0.792709 v -2.11719 c 0,-0.43516 -0.35756,-0.7953 -0.79272,-0.7953 h -1.50223 l -0.64441,-0.47646 c -0.0457,-0.0342 -0.10111,-0.0526 -0.15813,-0.0527 h -1.40043 c -0.43516,0 -0.79271,0.36014 -0.79271,0.7953 v 1.05834 h -0.52969 c -0.15115,0 -0.26561,-0.11446 -0.26561,-0.26562 V 8.7302387 h 0.7953 v 1.05885 c 0,0.4351603 0.35755,0.7947903 0.79271,0.7947903 h 3.7052 c 0.43516,0 0.79272,-0.35963 0.79272,-0.7947903 V 7.6739786 c 0,-0.43517 -0.35756,-0.7953099 -0.79272,-0.7953099 h -1.50223 l -0.64441,-0.47645 c -0.0457,-0.0342 -0.10111,-0.0526 -0.15813,-0.0527 h -1.40043 c -0.43516,0 -0.79271,0.36014 -0.79271,0.7953002 v 1.0562597 h -0.7953 V 3.1760687 c 0,-0.1511599 0.11446,-0.2661299 0.26561,-0.2661299 h 0.52969 v 1.0588501 c 0,0.4351599 0.35755,0.7927099 0.79271,0.7927099 h 3.7052 c 0.43516,0 0.79272,-0.35755 0.79272,-0.7927099 V 1.8515988 c 0,-0.43516 -0.35756,-0.79271 -0.79272,-0.79271 h -1.50223 l -0.64441,-0.47853006 c -0.0458,-0.0336 -0.10129,-0.0515 -0.15813,-0.0512 z m 1.31258,0.52969006 0.64648,0.47645 c 0.0457,0.0342 0.10111,0.0526 0.15813,0.0527 h 1.58801 c 0.15116,0 0.26355,0.1124 0.26355,0.26355 v 0.52917 h -4.2323 v -1.05833 c 0,-0.15116 0.1124,-0.26355 0.26355,-0.263545 z m -1.57613,1.85105 h 4.2323 v 1.05885 c 0,0.1511501 -0.11239,0.2635401 -0.26355,0.2635401 h -3.7052 c -0.15115,0 -0.26355,-0.11239 -0.26355,-0.2635401 z m -10.3068608,1.05885 h 1.31051 v 2.64635 h -1.31051 c -0.15849,0 -0.27699,-0.1205701 -0.27699,-0.27906 v -2.08979 c 0,-0.1584899 0.1185,-0.2775 0.27699,-0.2775 z m 1.8401999,0 H 8.453226 c 0.1584902,0 0.2769902,0.1190101 0.2769902,0.2775 v 2.08979 c 0,0.1584899 -0.1185,0.27906 -0.2769902,0.27906 H 3.1760361 Z M 1.8520862,5.0270987 c -0.14613,0 -0.26459,0.11846 -0.26459,0.2645801 0,0.1461299 0.11846,0.26459 0.26459,0.26459 0.14612,0 0.26458,-0.1184601 0.26458,-0.26459 0,-0.1461201 -0.11846,-0.2645801 -0.26458,-0.2645801 z m 2.1166601,5.291e-4 c -0.1453102,5.557e-4 -0.2629702,0.1182198 -0.2635501,0.2635398 -5.821e-4,0.1461202 0.11743,0.26504 0.2635501,0.2656102 H 7.9374962 C 8.0836261,5.5561957 8.2016163,5.4372878 8.2010461,5.2911676 8.2004905,5.1458476 8.0828162,5.0281776 7.9374962,5.0276178 Z m 9.2500807,1.8510499 0.64648,0.4785201 c 0.0459,0.0336 0.10129,0.0515 0.15813,0.0512 h 1.58801 c 0.15116,0 0.26355,0.11446 0.26355,0.2656202 v 0.5270899 h -4.2323 v -1.05626 c 0,-0.1511599 0.1124,-0.2661401 0.26355,-0.2661552 z M 1.3358362,7.1447988 h 1.31051 v 2.6442799 h -1.31051 c -0.15849,0 -0.27699,-0.1190199 -0.27699,-0.2775001 V 7.4217789 c 0,-0.1584802 0.1185,-0.2769801 0.27699,-0.2769801 z m 1.8401999,0 H 8.453226 c 0.1584902,0 0.2769902,0.1184999 0.2769902,0.2769801 v 0.7792799 0.5291698 0.78135 c 0,0.1584802 -0.1185,0.2775001 -0.2769902,0.2775001 H 3.1760361 Z m 0.7927102,1.05626 c -0.1461201,5.821e-4 -0.2641201,0.1194998 -0.2635501,0.26562 5.82e-4,0.14532 0.1182301,0.26299 0.2635501,0.2635498 h 3.9687499 c 0.14532,-5.556e-4 0.26299,-0.1182298 0.2635499,-0.2635498 5.821e-4,-0.1461202 -0.11742,-0.2650501 -0.2635499,-0.26562 z m -2.1166601,0.00101 c -0.14613,0 -0.26459,0.11846 -0.26459,0.2645902 0,0.1461199 0.11846,0.2645799 0.26459,0.2645799 0.14612,0 0.26458,-0.11846 0.26458,-0.2645799 0,-0.1461302 -0.11846,-0.2645902 -0.26458,-0.2645902 z m 9.7906108,0.5281401 h 4.2323 v 1.05885 c 0,0.1511499 -0.11239,0.2656201 -0.26355,0.2656201 h -3.7052 c -0.15115,0 -0.26355,-0.1144702 -0.26355,-0.2656201 z M 1.3358362,10.318219 h 1.31051 v 2.64687 h -1.31051 c -0.15849,0 -0.27699,-0.11902 -0.27699,-0.27751 v -2.09186 c 0,-0.15848 0.1185,-0.2775 0.27699,-0.2775 z m 1.8401999,0 H 8.453226 c 0.1584902,0 0.2769902,0.11901 0.2769902,0.2775 v 2.09186 c 0,0.15849 -0.1185,0.2775 -0.2769902,0.2775 H 3.1760361 Z m -1.3239499,1.05885 c -0.14613,0 -0.26459,0.11845 -0.26459,0.26458 0,0.14612 0.11846,0.26458 0.26459,0.26458 0.14612,0 0.26458,-0.11846 0.26458,-0.26458 0,-0.14613 -0.11846,-0.26458 -0.26458,-0.26458 z m 2.1166601,0 c -0.1461201,5.82e-4 -0.2641201,0.11949 -0.2635501,0.26561 5.82e-4,0.14532 0.1182301,0.26299 0.2635501,0.26355 h 3.9687499 c 0.14532,-5.56e-4 0.26299,-0.11823 0.2635499,-0.26355 5.821e-4,-0.14612 -0.11742,-0.26504 -0.2635499,-0.26561 z m 9.2500807,1.32188 0.64648,0.47852 c 0.0458,0.0336 0.10129,0.0515 0.15813,0.0512 h 1.58801 c 0.15116,0 0.26355,0.11446 0.26355,0.26562 v 0.52917 h -4.2323 v -1.05833 c 0,-0.151161 0.1124,-0.266141 0.26355,-0.266161 z m -1.57613,1.85363 h 4.2323 v 1.05885 c 0,0.15116 -0.11239,0.26355 -0.26355,0.26355 h -3.7052 c -0.15115,0 -0.26355,-0.11239 -0.26355,-0.26355 z" id="rect3302" style="color:#000000;font-style:normal;font-variant:normal;font-weight:normal;font-stretch:normal;font-size:medium;line-height:normal;font-family:sans-serif;font-variant-ligatures:normal;font-variant-position:normal;font-variant-caps:normal;font-variant-numeric:normal;font-variant-alternates:normal;font-feature-settings:normal;text-indent:0;text-align:start;text-decoration:none;text-decoration-line:none;text-decoration-style:solid;text-decoration-color:#000000;letter-spacing:normal;word-spacing:normal;text-transform:none;writing-mode:lr-tb;direction:ltr;text-orientation:mixed;dominant-baseline:auto;baseline-shift:baseline;text-anchor:start;white-space:normal;shape-padding:0;clip-rule:nonzero;display:inline;overflow:visible;visibility:visible;opacity:1;isolation:auto;mix-blend-mode:normal;color-interpolation:sRGB;color-interpolation-filters:linearRGB;solid-color:#000000;solid-opacity:1;vector-effect:none;fill:#66a0fe;fill-opacity:1;fill-rule:nonzero;stroke:none;stroke-width:1;stroke-linecap:round;stroke-linejoin:round;stroke-miterlimit:4;stroke-dasharray:none;stroke-dashoffset:0;stroke-opacity:1;color-rendering:auto;image-rendering:auto;shape-rendering:auto;text-rendering:auto;enable-background:accumulate"/></g></svg>